<?xml version="1.0" encoding="utf-8"?>
<!-- Generator: Adobe Illustrator 21.0.0, SVG Export Plug-In . SVG Version: 6.00 Build 0)  -->
<svg version="1.1" id="Layer_1" xmlns="http://www.w3.org/2000/svg" xmlns:xlink="http://www.w3.org/1999/xlink" x="0px" y="0px"
	 viewBox="0 0 792 612" enable-background="new 0 0 792 612" xml:space="preserve">
<path fill="#414140" stroke="#414140" stroke-width="0.25" stroke-miterlimit="10" d="M485.4,114.9c-8.7-8.7-34.3-3.9-40.1-4.2
	c-12.8-0.7-31.8-1.2-39.1-1.3c-7.3-0.1-16,1.8-24.4,7.2c-8.4,5.4-14.4,17.8-14.4,17.8s-18.7,14.1-31.1,40.4
	c-12.3,26.3-18.7,53.5-23,75.4c-4.2,21.9-8.7,53.7-4.7,79.7s10.6,40.2,14.3,61.6c3.6,21.4,9.7,35.3,12.1,41.9s8.7,24.2,0.8,39.4
	s-32.3,25.4-23.2,25.9c9.2,0.5,14.3-2.3,14.3-2.3s-7.4,7.7-0.3,6.4c7.1-1.3,13.3-5.7,13.3-5.7s-5.7,5.9-0.5,4.7
	c13.9-3.4,22.7-8.4,32.3-16.8c0,0,2,10.6,4.4,13.6s24.9,2.8,24.9,2.8s7.9,3,12.1,1.7s7.9-4.1,7.9-4.1c4.9,2,9.2,8.1,10.5,5.7
	c1.3-2.3,0.7-7.1,0.7-7.1c2.7,1.5,6.2,6.6,5.9,3.7c-0.6-4.9-3-10.2-3-10.2l5.6-0.7c0,0,11.3,6.1,11.1,3.6
	c-0.5-8.1-15.1-14.3-15.1-14.3c-2.8-4.1-24.6,0.5-24.6,0.5c9.6-8.1,13.3-27.3,13.3-27.3s14-5,18-9.7c13.1-14.8,22.7-65.4,22.7-65.4
	c6.9-30.3,7.1-77.1,7.1-77.1s0.8-29.4-3-60.6s-19.9-52-19.9-52c-1.3-13.8-12.8-32.5-12.8-32.5c4.3-3.3,5.9-4.4,6.4-11.5
	c0.3-3.6-2-6.9-2-6.9c7.2-6.8,11.5-11.6,19.4-14.7C469.7,119.8,487,116.5,485.4,114.9z M416.7,119.4c2.4-0.9,4.8,0,5.5,2
	c0.7,1.9-0.7,4.1-3,5c-2.4,0.9-4.8,0-5.5-2C413,122.5,414.3,120.3,416.7,119.4z M360.8,150.6c13.7-13,29-15.1,31.1-10.5
	c1.5,3.4,1.2,12.1-2.3,16.7c-3.3,4.4-23.7,5.3-27.1,4C359,159.6,355.7,155.5,360.8,150.6z M438.1,183c-0.8,2.8-3.7,2.8-6.1,3.2
	s14.6,12.6,20.9,24.5c6.3,11.8,11,47.6,13.1,88.5c0,0-2.2,51.2-8.4,77.4c0,0-4.1,30.6-25.7,56.5c1.6-12.5-3.5-18.9-3.2-14.2
	c0.3,4.9,0.5,11.2-1.3,18c-0.3,0.3-0.6,0.5-1,0.7c1.8-20.9-6.3-39-5.5-31.5c0.8,7.3,1.3,24.4-0.5,35.4c-0.2,0.1-0.3,0.2-0.5,0.3
	c-0.3-14.7-3.6-35.2-7.7-43.8c-3.4-7.1,0.3,15.9,1.6,34.1c-1.3-4.8-3.4-10-6.5-12.7c-2.8-2.5-3.1,1.2-2.5,7.5l-0.2-0.1
	c-2-3.2-2.7,3.7-2.2,16c0.1,1.5,0.1,2.8,0.1,4.1c-0.9-1.3-2.9,1.4-3.7,5.5c-1.2,5.6-3.2,21.4-1,17.3c1.8-3.4,3.7-10.3,4.6-16
	c0.6,4.8-1.1,9.2-1.3,12.3c-0.3,3.7,5.3-9.3,5.8-14.9c1.8,4,0.2,9.4-0.6,12.9c-3.3,16.1-5.9,20.4-4.8,23.1c0,0-3.5,7.3-5.3,8.2
	c-1.3,0.7-11.4-0.6-11.4-0.6c-2.8-0.5-3.5-2-3.5-11.8c0.1-9.9-5.9-21.6-9.3-25.4c0,0,0.9-15.1-5.2-26.7s-13.3-20-11.6-28.7
	c1.7-8.6,3.7-8.5,5.7-18.3c2-14.3,2.8-23.6,1.1-32c-3.3-17.1-20.2-44.9-21.7-62.1s0.8-26.4,14-49.8s18-35.4,18-35.4
	c2-4.8,2.6,1.7,1.8,4.5c-8.3,27.3-23.5,45.1-23.7,71.4c-0.3,29.1,14.8,47.9,18,69.6c2.7,17.5,2,51.7-3.4,61
	c0.2,5.9,17.4-3.2,23.3-13.6c11.4-20.3,12.7-37.4,13.1-53.6c0-1.7,4.5,32.6,3.5-4.1c2.8,20.4,4.6,0.7,4.4-6.5c0-1,3.5,16.8,5.4-5.7
	c0.3-3.6,0.9-8.1,1.3-12.3c7.1,25.4,9.8-31.4,5.8-37.3c-5.3-8-3.6,20-5.2,29.1c-2.1-19.4-4.9,2.2-6.6,9.1c0.9-23.7-5-0.6-5.7,8.5
	c0.4-28.5-4.4-10.4-4.7-1.9c-1.8-14.3-5-24.1-9.9-43c-6.4-25.3-8-35.5,1.8-49.3c2.4-3.4,0.1-16.8-0.9-31.3
	c3.5,17.3,4.4,15.6,4.1,1.4c1.5,5.8,4.4,12.1,7.5,14.4c3.9,3-3.5-13.4-2.7-21.1c1-9.8-3.6-17.6-5.4-6.1c-0.8-10.4-1.8-12.6-3.3-11.8
	c1.1-6.8,2.8-13.6,7.8-16.4c16.5-9.4,29.1-3.1,29.1-3.1C434,160,440.1,176.4,438.1,183z M428.2,130.1c-8.4,2.2,4.9-5.9,16.3-10.8
	c9.7-4.1,19.4-5.2,27.2-5.1c1.4,0-12,3.4-17.2,5.3C443.9,123,436.6,128,428.2,130.1z M429.5,296.7c-0.4-8.9,1-21,2.2-37.5
	c0.9-11.8,4,6.7,4.2,19C436.1,290.5,429.9,305.5,429.5,296.7z M412.3,220.5c-2.6-0.3-8.1-19.4-7-27c0.9-5.7,6.6,2.4,6.3,8.5
	C411.3,209.4,414.5,220.8,412.3,220.5z"/>
</svg>
